<svg width="24" height="24" viewBox="0 0 24 24" fill="none" xmlns="http://www.w3.org/2000/svg">
  <!-- Brain outline with pause symbol - monochrome for activity bar -->
  <path d="M12 4C10.5 4 9.2 4.8 8.5 6C7.8 5.6 7 5.4 6.2 5.6C5 5.9 4 6.9 3.7 8.2C3.5 9 3.6 9.8 4 10.5C3.4 11.2 3 12.1 3 13C3 14.3 3.7 15.5 4.8 16.2C5.2 17.8 6.6 19 8.3 19.2C9 19.8 9.9 20.2 10.9 20.2C11.6 20.2 12.2 20 12.7 19.7C13.2 20 13.8 20.2 14.5 20.2C15.5 20.2 16.4 19.8 17.1 19.2C18.8 19 20.2 17.8 20.6 16.2C21.7 15.5 22.4 14.3 22.4 13C22.4 12.1 22 11.2 21.4 10.5C21.8 9.8 21.9 9 21.7 8.2C21.4 6.9 20.4 5.9 19.2 5.6C18.4 5.4 17.6 5.6 16.9 6C16.2 4.8 14.9 4 13.4 4H12Z" stroke="currentColor" stroke-width="1.5" stroke-linecap="round" stroke-linejoin="round"/>

  <!-- Pause bars -->
  <rect x="9.5" y="9" width="1.5" height="6" rx="0.75" fill="currentColor"/>
  <rect x="13" y="9" width="1.5" height="6" rx="0.75" fill="currentColor"/>
</svg>
